<svg xmlns="http://www.w3.org/2000/svg" viewBox="0 0 180 180" width="180" height="180">
  <defs>
    <linearGradient id="gradient1" x1="0%" y1="0%" x2="100%" y2="100%">
      <stop offset="0%" stop-color="#6d5acd" />
      <stop offset="100%" stop-color="#5042a9" />
    </linearGradient>
    <linearGradient id="gradient2" x1="0%" y1="0%" x2="100%" y2="100%">
      <stop offset="0%" stop-color="#00e599" />
      <stop offset="100%" stop-color="#00c280" />
    </linearGradient>
    <filter id="shadow" x="-20%" y="-20%" width="140%" height="140%">
      <feGaussianBlur in="SourceAlpha" stdDeviation="3" />
      <feOffset dx="0" dy="2" result="offsetblur" />
      <feComponentTransfer>
        <feFuncA type="linear" slope="0.2" />
      </feComponentTransfer>
      <feMerge>
        <feMergeNode />
        <feMergeNode in="SourceGraphic" />
      </feMerge>
    </filter>
  </defs>
  <rect width="180" height="180" rx="40" fill="url(#gradient1)" />
  <g transform="translate(40, 40)" filter="url(#shadow)">
    <path d="M18 22L50 14L82 22V68L50 76L18 68V22Z" fill="none" stroke="white" stroke-width="5" />
    <path d="M50 14V76" stroke="white" stroke-width="3" />
    <path d="M18 22L82 68" stroke="white" stroke-width="3" />
    <path d="M82 22L18 68" stroke="white" stroke-width="3" />
    <circle cx="50" cy="45" r="12" fill="url(#gradient2)" />
    <circle cx="50" cy="14" r="5" fill="white" />
    <circle cx="50" cy="76" r="5" fill="white" />
    <circle cx="18" cy="22" r="5" fill="white" />
    <circle cx="18" cy="68" r="5" fill="white" />
    <circle cx="82" cy="22" r="5" fill="white" />
    <circle cx="82" cy="68" r="5" fill="white" />
  </g>
  <text x="90" y="155" font-family="'Inter', sans-serif" font-size="18" font-weight="700" fill="white" text-anchor="middle">Neo N3 MCP</text>
</svg> 