<svg xmlns="http://www.w3.org/2000/svg" width="48" height="48" viewBox="0 0 48 48" fill="none">
  <path d="M24 30C27.3137 30 30 27.3137 30 24C30 20.6863 27.3137 18 24 18C20.6863 18 18 20.6863 18 24C18 27.3137 20.6863 30 24 30Z" stroke="#00e599" stroke-width="2" stroke-linecap="round" stroke-linejoin="round"/>
  <path d="M37 37C35.9033 35.5272 34.5013 34.3185 32.8955 33.4611C31.2897 32.6037 29.5166 32.1177 27.71 32.03" stroke="#00e599" stroke-width="2" stroke-linecap="round" stroke-linejoin="round"/>
  <path d="M11 37C12.0967 35.5272 13.4987 34.3185 15.1045 33.4611C16.7103 32.6037 18.4834 32.1177 20.29 32.03" stroke="#00e599" stroke-width="2" stroke-linecap="round" stroke-linejoin="round"/>
  <path d="M37 11C35.9033 12.4728 34.5013 13.6815 32.8955 14.5389C31.2897 15.3963 29.5166 15.8823 27.71 15.97" stroke="#00e599" stroke-width="2" stroke-linecap="round" stroke-linejoin="round"/>
  <path d="M11 11C12.0967 12.4728 13.4987 13.6815 15.1045 14.5389C16.7103 15.3963 18.4834 15.8823 20.29 15.97" stroke="#00e599" stroke-width="2" stroke-linecap="round" stroke-linejoin="round"/>
  <path d="M24 6V12" stroke="#00e599" stroke-width="2" stroke-linecap="round" stroke-linejoin="round"/>
  <path d="M6 24H12" stroke="#00e599" stroke-width="2" stroke-linecap="round" stroke-linejoin="round"/>
  <path d="M24 36V42" stroke="#00e599" stroke-width="2" stroke-linecap="round" stroke-linejoin="round"/>
  <path d="M36 24H42" stroke="#00e599" stroke-width="2" stroke-linecap="round" stroke-linejoin="round"/>
</svg> 